<?xml version="1.0" standalone="no"?>
<!DOCTYPE svg PUBLIC "-//W3C//DTD SVG 20010904//EN"
 "http://www.w3.org/TR/2001/REC-SVG-20010904/DTD/svg10.dtd">
<svg version="1.0" xmlns="http://www.w3.org/2000/svg"
 width="748.000000pt" height="254.000000pt" viewBox="0 0 748.000000 254.000000"
 preserveAspectRatio="xMidYMid meet">

<g transform="translate(0.000000,254.000000) scale(0.100000,-0.100000)"
fill="#000000" stroke="none">
<path d="M2350 309 c0 -157 1 -170 18 -167 15 3 17 20 20 171 2 162 2 167 -18
167 -19 0 -20 -6 -20 -171z"/>
<path d="M4800 421 c0 -65 -3 -69 -34 -46 -11 8 -37 15 -59 15 -102 0 -144
-163 -60 -230 30 -24 91 -26 119 -5 25 19 34 19 34 -1 0 -9 7 -14 18 -12 15 3
17 19 17 168 0 149 -2 165 -17 168 -16 3 -18 -5 -18 -57z m-30 -76 c29 -15 30
-19 30 -80 0 -55 -3 -66 -22 -79 -52 -36 -123 -10 -134 49 -18 95 47 151 126
110z"/>
<path d="M6074 467 c-2 -7 -3 -82 -2 -167 3 -138 5 -155 21 -158 16 -3 17 10
17 167 0 147 -2 171 -15 171 -9 0 -18 -6 -21 -13z"/>
<path d="M2730 451 c0 -27 19 -36 37 -18 18 18 9 37 -18 37 -12 0 -19 -7 -19
-19z"/>
<path d="M4234 459 c-10 -17 23 -46 37 -32 7 7 9 19 6 27 -7 18 -33 21 -43 5z"/>
<path d="M5703 454 c-3 -8 -1 -20 6 -27 14 -14 47 15 37 32 -10 16 -36 13 -43
-5z"/>
<path d="M5410 420 c0 -24 -4 -30 -21 -30 -14 0 -19 -5 -17 -17 2 -10 10 -18
18 -18 12 0 16 -20 20 -98 5 -107 11 -117 68 -117 40 0 45 27 5 32 l-28 3 0
90 c0 88 1 90 23 87 17 -3 22 2 22 17 0 16 -6 21 -25 21 -21 0 -25 5 -25 30 0
23 -4 30 -20 30 -16 0 -20 -7 -20 -30z"/>
<path d="M1161 364 c-45 -38 -58 -92 -37 -149 27 -71 105 -97 177 -59 25 12
28 18 19 29 -11 13 -15 13 -33 0 -42 -30 -100 -17 -122 26 -47 90 44 189 122
134 31 -22 43 2 13 27 -34 28 -101 24 -139 -8z"/>
<path d="M1414 371 c-65 -40 -73 -151 -15 -203 26 -23 41 -28 82 -28 45 0 55
4 85 34 29 29 34 41 34 83 0 109 -96 169 -186 114z m121 -36 c34 -33 35 -108
3 -142 -30 -32 -81 -31 -113 2 -19 18 -25 35 -25 70 0 57 32 95 80 95 19 0 40
-9 55 -25z"/>
<path d="M1660 265 c0 -104 2 -125 15 -125 12 0 15 17 15 89 0 85 1 91 26 110
33 26 70 27 84 2 5 -11 10 -60 10 -110 0 -74 3 -91 15 -91 12 0 15 17 15 89 0
85 1 91 26 110 30 23 64 27 82 9 8 -8 12 -47 12 -110 0 -93 1 -98 21 -98 20 0
21 4 17 111 -3 96 -6 113 -22 125 -28 20 -79 17 -108 -6 -25 -19 -26 -19 -43
0 -22 24 -73 26 -101 5 -25 -19 -34 -19 -34 0 0 8 -7 15 -15 15 -13 0 -15 -21
-15 -125z"/>
<path d="M2068 220 c-3 -156 -2 -170 15 -170 14 0 17 10 17 60 0 64 3 68 34
45 29 -22 89 -19 119 6 54 42 58 150 6 201 -35 35 -93 38 -133 7 l-26 -20 0
20 c0 12 -6 21 -15 21 -12 0 -15 -29 -17 -170z m147 134 c21 -8 45 -56 45 -89
0 -33 -24 -81 -45 -89 -29 -11 -70 -7 -93 10 -19 13 -22 24 -22 79 0 60 2 65
28 79 29 16 61 20 87 10z"/>
<path d="M2484 357 c-64 -58 -56 -165 16 -202 53 -28 160 -13 160 23 0 9 -6
12 -17 7 -71 -29 -129 -20 -152 23 -21 39 -14 42 89 42 l100 0 0 28 c0 37 -34
90 -66 102 -50 19 -92 12 -130 -23z m136 -17 c11 -11 20 -29 20 -40 0 -18 -7
-20 -80 -20 -90 0 -100 11 -55 55 31 32 86 34 115 5z"/>
<path d="M2735 378 c-3 -7 -6 -78 -7 -158 l-3 -145 -37 1 c-25 1 -38 -3 -38
-12 0 -32 92 -27 110 6 6 10 10 86 10 169 0 129 -2 151 -15 151 -9 0 -18 -6
-20 -12z"/>
<path d="M2864 356 c-30 -30 -34 -40 -34 -86 0 -89 39 -130 123 -130 94 0 145
94 101 186 -20 42 -59 64 -115 64 -33 0 -47 -6 -75 -34z m141 -22 c35 -38 35
-105 0 -139 -57 -58 -140 -15 -140 72 0 37 5 49 28 69 38 32 81 31 112 -2z"/>
<path d="M3284 380 c-26 -10 -37 -26 -29 -40 4 -7 14 -5 28 5 25 17 70 20 98
5 13 -8 19 -21 19 -46 0 -31 -2 -34 -19 -24 -32 16 -96 12 -122 -9 -17 -13
-23 -29 -23 -56 0 -27 6 -43 23 -56 26 -21 81 -25 114 -8 16 9 22 9 25 0 2 -6
12 -11 23 -11 17 0 19 8 19 100 0 94 -2 103 -25 125 -18 19 -34 25 -67 24 -24
0 -53 -4 -64 -9z m97 -120 c30 -17 26 -74 -6 -88 -35 -16 -56 -15 -83 4 -64
44 18 122 89 84z"/>
<path d="M3535 366 c-34 -34 -47 -90 -34 -142 14 -54 36 -74 89 -81 32 -5 48
-1 71 16 l29 22 0 -35 c0 -64 -73 -96 -140 -61 -34 18 -55 0 -25 -21 47 -35
142 -25 181 17 17 19 19 37 19 162 0 127 -2 142 -17 145 -13 2 -18 -3 -18 -18
l0 -21 -26 20 c-37 29 -98 28 -129 -3z m125 -21 c29 -15 30 -19 30 -80 0 -61
-1 -65 -30 -80 -35 -18 -51 -19 -83 -4 -45 20 -60 85 -32 139 22 43 63 52 115
25z"/>
<path d="M3794 377 c-2 -7 -3 -62 -2 -123 3 -94 5 -109 21 -112 15 -3 17 6 17
86 0 96 12 121 59 125 13 1 21 8 21 19 0 24 -21 23 -54 -3 l-26 -20 0 20 c0
23 -28 29 -36 8z"/>
<path d="M3998 375 c-74 -41 -77 -170 -6 -219 13 -9 43 -16 71 -16 42 0 54 5
83 34 31 31 34 40 34 90 0 47 -4 61 -28 87 -23 26 -37 32 -78 35 -32 3 -58 -1
-76 -11z m104 -26 c27 -14 50 -73 42 -107 -17 -70 -91 -96 -139 -47 -19 18
-25 35 -25 70 0 75 61 117 122 84z"/>
<path d="M4240 265 c0 -104 2 -125 15 -125 13 0 15 21 15 125 0 104 -2 125
-15 125 -13 0 -15 -21 -15 -125z"/>
<path d="M4340 265 c0 -118 1 -125 20 -125 19 0 20 7 20 94 0 66 4 97 13 105
22 18 73 24 95 12 19 -10 22 -22 24 -109 3 -83 6 -97 21 -100 15 -3 17 7 17
93 0 91 -9 131 -34 147 -20 14 -81 8 -105 -8 -22 -16 -24 -16 -33 0 -5 9 -16
16 -23 16 -12 0 -15 -22 -15 -125z"/>
<path d="M4907 383 c-11 -10 -8 -169 4 -200 5 -15 16 -31 22 -35 20 -13 92 -9
114 7 19 13 22 13 27 0 3 -8 12 -15 21 -15 13 0 15 19 15 126 0 114 -2 125
-17 122 -15 -3 -18 -17 -21 -93 -3 -102 -17 -125 -76 -125 -50 0 -56 13 -56
122 0 75 -3 98 -13 98 -8 0 -17 -3 -20 -7z"/>
<path d="M5185 365 c-14 -13 -25 -30 -25 -37 0 -30 33 -58 85 -73 62 -18 84
-39 69 -63 -19 -30 -61 -36 -104 -14 -40 19 -50 19 -50 -3 0 -19 47 -35 100
-35 59 0 90 24 90 68 0 37 -23 56 -84 73 -57 16 -77 39 -56 64 14 17 74 18
113 1 12 -6 17 -4 17 6 0 20 -43 38 -91 38 -29 0 -47 -7 -64 -25z"/>
<path d="M5550 265 c0 -103 3 -125 15 -125 11 0 15 19 17 93 l3 92 42 20 c23
11 42 26 43 33 0 16 -19 15 -50 -3 -32 -18 -40 -18 -40 0 0 8 -7 15 -15 15
-13 0 -15 -21 -15 -125z"/>
<path d="M5710 265 c0 -104 2 -125 15 -125 13 0 15 21 15 125 0 104 -2 125
-15 125 -13 0 -15 -21 -15 -125z"/>
<path d="M5838 374 c-16 -8 -28 -18 -28 -23 0 -17 14 -20 34 -6 11 8 37 15 58
15 41 0 68 -27 68 -68 0 -19 -4 -23 -17 -16 -10 4 -39 9 -65 12 -57 5 -88 -20
-88 -71 0 -63 79 -100 143 -66 16 9 22 9 25 0 2 -6 10 -11 18 -11 11 0 14 21
14 104 0 101 -1 105 -26 125 -32 25 -96 27 -136 5z m110 -120 c45 -31 13 -94
-48 -94 -55 0 -85 55 -51 89 25 25 68 27 99 5z"/>
</g>
</svg>
